<svg xmlns="http://www.w3.org/2000/svg" xmlns:xlink="http://www.w3.org/1999/xlink" width="500" zoomAndPan="magnify" viewBox="0 0 375 374.999991" height="500" preserveAspectRatio="xMidYMid meet" version="1.0"><defs><clipPath id="f4c9bcdad4"><path d="M 101.527344 112.605469 L 236.058594 112.605469 L 236.058594 262.410156 L 101.527344 262.410156 Z M 101.527344 112.605469 " clip-rule="nonzero"/></clipPath><clipPath id="2ed8584cea"><path d="M 125.570312 112.605469 L 129 112.605469 L 129 262.410156 L 125.570312 262.410156 Z M 125.570312 112.605469 " clip-rule="nonzero"/></clipPath><clipPath id="c6ba4ec404"><path d="M 95.824219 129 L 113 129 L 113 138 L 95.824219 138 Z M 95.824219 129 " clip-rule="nonzero"/></clipPath><clipPath id="ffd56df013"><path d="M 95.824219 147 L 113 147 L 113 156 L 95.824219 156 Z M 95.824219 147 " clip-rule="nonzero"/></clipPath><clipPath id="9a3dec9978"><path d="M 95.824219 165 L 113 165 L 113 174 L 95.824219 174 Z M 95.824219 165 " clip-rule="nonzero"/></clipPath><clipPath id="50f6017580"><path d="M 95.824219 183 L 113 183 L 113 192 L 95.824219 192 Z M 95.824219 183 " clip-rule="nonzero"/></clipPath><clipPath id="296b76c4ac"><path d="M 95.824219 201 L 113 201 L 113 210 L 95.824219 210 Z M 95.824219 201 " clip-rule="nonzero"/></clipPath><clipPath id="ae0395056b"><path d="M 95.824219 219 L 113 219 L 113 228 L 95.824219 228 Z M 95.824219 219 " clip-rule="nonzero"/></clipPath><clipPath id="03df5e3293"><path d="M 95.824219 237 L 113 237 L 113 246 L 95.824219 246 Z M 95.824219 237 " clip-rule="nonzero"/></clipPath></defs><g clip-path="url(#f4c9bcdad4)"><path fill="#000000" d="M 103.253906 150.738281 C 104.117188 150.738281 104.820312 150.039062 104.820312 149.179688 L 104.820312 136.402344 C 104.820312 135.542969 104.117188 134.839844 103.253906 134.839844 C 102.394531 134.839844 101.691406 135.542969 101.691406 136.402344 L 101.691406 149.179688 C 101.691406 150.039062 102.394531 150.738281 103.253906 150.738281 Z M 103.253906 168.589844 C 104.117188 168.589844 104.820312 167.882812 104.820312 167.027344 L 104.820312 154.25 C 104.820312 153.390625 104.117188 152.691406 103.253906 152.691406 C 102.394531 152.691406 101.691406 153.390625 101.691406 154.25 L 101.691406 167.027344 C 101.691406 167.882812 102.394531 168.589844 103.253906 168.589844 Z M 103.253906 186.535156 C 104.117188 186.535156 104.820312 185.832031 104.820312 184.972656 L 104.820312 172.195312 C 104.820312 171.335938 104.117188 170.636719 103.253906 170.636719 C 102.394531 170.636719 101.691406 171.335938 101.691406 172.195312 L 101.691406 184.972656 C 101.691406 185.832031 102.394531 186.535156 103.253906 186.535156 Z M 103.253906 204.378906 C 104.117188 204.378906 104.820312 203.675781 104.820312 202.820312 L 104.820312 190.042969 C 104.820312 189.183594 104.117188 188.484375 103.253906 188.484375 C 102.394531 188.484375 101.691406 189.183594 101.691406 190.042969 L 101.691406 202.820312 C 101.691406 203.675781 102.394531 204.378906 103.253906 204.378906 Z M 103.253906 222.328125 C 104.117188 222.328125 104.820312 221.625 104.820312 220.765625 L 104.820312 207.988281 C 104.820312 207.128906 104.117188 206.429688 103.253906 206.429688 C 102.394531 206.429688 101.691406 207.128906 101.691406 207.988281 L 101.691406 220.765625 C 101.691406 221.625 102.394531 222.328125 103.253906 222.328125 Z M 103.253906 240.175781 C 104.117188 240.175781 104.820312 239.472656 104.820312 238.613281 L 104.820312 225.835938 C 104.820312 224.980469 104.117188 224.277344 103.253906 224.277344 C 102.394531 224.277344 101.691406 224.980469 101.691406 225.835938 L 101.691406 238.613281 C 101.691406 239.472656 102.394531 240.175781 103.253906 240.175781 Z M 224.320312 262.410156 L 113.523438 262.410156 C 107 262.410156 101.691406 257.113281 101.691406 250.609375 L 101.691406 243.785156 C 101.691406 242.925781 102.394531 242.222656 103.253906 242.222656 C 104.117188 242.222656 104.820312 242.925781 104.820312 243.785156 L 104.820312 250.609375 C 104.820312 255.398438 108.722656 259.289062 113.523438 259.289062 L 224.320312 259.289062 C 229.066406 259.289062 232.929688 255.398438 232.929688 250.609375 L 232.929688 124.40625 C 232.929688 119.617188 229.066406 115.726562 224.320312 115.726562 L 113.523438 115.726562 C 108.722656 115.726562 104.820312 119.617188 104.820312 124.40625 L 104.820312 131.234375 C 104.820312 132.089844 104.117188 132.792969 103.253906 132.792969 C 102.394531 132.792969 101.691406 132.089844 101.691406 131.234375 L 101.691406 124.40625 C 101.691406 117.898438 107 112.605469 113.523438 112.605469 L 224.320312 112.605469 C 230.796875 112.605469 236.058594 117.898438 236.058594 124.40625 L 236.058594 250.609375 C 236.058594 257.113281 230.796875 262.410156 224.320312 262.410156 " fill-opacity="1" fill-rule="evenodd"/></g><g clip-path="url(#2ed8584cea)"><path fill="#000000" d="M 127.3125 262.410156 C 126.453125 262.410156 125.75 261.707031 125.75 260.851562 L 125.75 114.164062 C 125.75 113.304688 126.453125 112.605469 127.3125 112.605469 C 128.171875 112.605469 128.878906 113.304688 128.878906 114.164062 L 128.878906 260.851562 C 128.878906 261.707031 128.171875 262.410156 127.3125 262.410156 " fill-opacity="1" fill-rule="evenodd"/></g><g clip-path="url(#c6ba4ec404)"><path fill="#000000" d="M 99.929688 132.792969 C 99.257812 132.792969 98.953125 133.347656 98.953125 133.867188 C 98.953125 134.335938 99.292969 134.839844 99.929688 134.839844 L 108.828125 134.839844 C 109.328125 134.839844 109.808594 134.363281 109.808594 133.867188 C 109.808594 133.28125 109.355469 132.792969 108.828125 132.792969 Z M 108.828125 137.964844 L 99.929688 137.964844 C 97.660156 137.964844 95.824219 136.128906 95.824219 133.867188 C 95.824219 131.515625 97.625 129.671875 99.929688 129.671875 L 108.828125 129.671875 C 111.097656 129.671875 112.9375 131.554688 112.9375 133.867188 C 112.9375 136.089844 111.058594 137.964844 108.828125 137.964844 " fill-opacity="1" fill-rule="evenodd"/></g><g clip-path="url(#ffd56df013)"><path fill="#000000" d="M 99.929688 150.738281 C 99.292969 150.738281 98.953125 151.246094 98.953125 151.714844 C 98.953125 152.183594 99.292969 152.691406 99.929688 152.691406 L 108.828125 152.691406 C 109.328125 152.691406 109.808594 152.210938 109.808594 151.714844 C 109.808594 151.21875 109.328125 150.738281 108.828125 150.738281 Z M 108.828125 155.8125 L 99.929688 155.8125 C 97.660156 155.8125 95.824219 153.976562 95.824219 151.714844 C 95.824219 149.453125 97.660156 147.617188 99.929688 147.617188 L 108.828125 147.617188 C 111.058594 147.617188 112.9375 149.492188 112.9375 151.714844 C 112.9375 153.9375 111.058594 155.8125 108.828125 155.8125 " fill-opacity="1" fill-rule="evenodd"/></g><g clip-path="url(#9a3dec9978)"><path fill="#000000" d="M 99.929688 168.589844 C 99.257812 168.589844 98.953125 169.144531 98.953125 169.660156 C 98.953125 170.128906 99.292969 170.636719 99.929688 170.636719 L 108.828125 170.636719 C 109.328125 170.636719 109.808594 170.15625 109.808594 169.660156 C 109.808594 169.074219 109.355469 168.589844 108.828125 168.589844 Z M 108.828125 173.757812 L 99.929688 173.757812 C 97.660156 173.757812 95.824219 171.921875 95.824219 169.660156 C 95.824219 167.308594 97.625 165.464844 99.929688 165.464844 L 108.828125 165.464844 C 111.097656 165.464844 112.9375 167.347656 112.9375 169.660156 C 112.9375 171.882812 111.058594 173.757812 108.828125 173.757812 " fill-opacity="1" fill-rule="evenodd"/></g><g clip-path="url(#50f6017580)"><path fill="#000000" d="M 99.929688 186.535156 C 99.292969 186.535156 98.953125 187.039062 98.953125 187.507812 C 98.953125 187.976562 99.292969 188.484375 99.929688 188.484375 L 108.828125 188.484375 C 109.328125 188.484375 109.808594 188.003906 109.808594 187.507812 C 109.808594 187.011719 109.328125 186.535156 108.828125 186.535156 Z M 108.828125 191.605469 L 99.929688 191.605469 C 97.660156 191.605469 95.824219 189.769531 95.824219 187.507812 C 95.824219 185.246094 97.660156 183.410156 99.929688 183.410156 L 108.828125 183.410156 C 111.058594 183.410156 112.9375 185.285156 112.9375 187.507812 C 112.9375 189.730469 111.058594 191.605469 108.828125 191.605469 " fill-opacity="1" fill-rule="evenodd"/></g><g clip-path="url(#296b76c4ac)"><path fill="#000000" d="M 99.929688 204.378906 C 99.292969 204.378906 98.953125 204.890625 98.953125 205.355469 C 98.953125 205.871094 99.257812 206.429688 99.929688 206.429688 L 108.828125 206.429688 C 109.355469 206.429688 109.808594 205.941406 109.808594 205.355469 C 109.808594 204.859375 109.328125 204.378906 108.828125 204.378906 Z M 108.828125 209.550781 L 99.929688 209.550781 C 97.625 209.550781 95.824219 207.707031 95.824219 205.355469 C 95.824219 203.09375 97.660156 201.261719 99.929688 201.261719 L 108.828125 201.261719 C 111.058594 201.261719 112.9375 203.132812 112.9375 205.355469 C 112.9375 207.667969 111.097656 209.550781 108.828125 209.550781 " fill-opacity="1" fill-rule="evenodd"/></g><g clip-path="url(#ae0395056b)"><path fill="#000000" d="M 99.929688 222.328125 C 99.292969 222.328125 98.953125 222.832031 98.953125 223.300781 C 98.953125 223.769531 99.292969 224.277344 99.929688 224.277344 L 108.828125 224.277344 C 109.328125 224.277344 109.808594 223.796875 109.808594 223.300781 C 109.808594 222.804688 109.328125 222.328125 108.828125 222.328125 Z M 108.828125 227.398438 L 99.929688 227.398438 C 97.660156 227.398438 95.824219 225.566406 95.824219 223.300781 C 95.824219 221.039062 97.660156 219.207031 99.929688 219.207031 L 108.828125 219.207031 C 111.058594 219.207031 112.9375 221.078125 112.9375 223.300781 C 112.9375 225.523438 111.058594 227.398438 108.828125 227.398438 " fill-opacity="1" fill-rule="evenodd"/></g><g clip-path="url(#03df5e3293)"><path fill="#000000" d="M 99.929688 240.175781 C 99.292969 240.175781 98.953125 240.683594 98.953125 241.148438 C 98.953125 241.667969 99.257812 242.222656 99.929688 242.222656 L 108.828125 242.222656 C 109.355469 242.222656 109.808594 241.734375 109.808594 241.148438 C 109.808594 240.652344 109.328125 240.175781 108.828125 240.175781 Z M 108.828125 245.34375 L 99.929688 245.34375 C 97.625 245.34375 95.824219 243.5 95.824219 241.148438 C 95.824219 238.886719 97.660156 237.054688 99.929688 237.054688 L 108.828125 237.054688 C 111.058594 237.054688 112.9375 238.925781 112.9375 241.148438 C 112.9375 243.460938 111.097656 245.34375 108.828125 245.34375 " fill-opacity="1" fill-rule="evenodd"/></g><path fill="#000000" d="M 144.621094 167.125 C 142.8125 167.125 141.394531 168.5 141.394531 170.246094 L 141.394531 210.039062 C 141.394531 211.78125 142.8125 213.15625 144.621094 213.15625 L 217.28125 213.15625 C 219.003906 213.15625 220.410156 211.753906 220.410156 210.039062 L 220.410156 170.246094 C 220.410156 168.527344 219.003906 167.125 217.28125 167.125 L 172.296875 167.125 C 171.574219 167.125 170.945312 166.636719 170.78125 165.933594 C 169.753906 161.75 165.988281 158.835938 161.636719 158.835938 C 157.285156 158.835938 153.519531 161.75 152.492188 165.933594 C 152.316406 166.636719 151.691406 167.125 150.976562 167.125 Z M 217.28125 216.277344 L 144.621094 216.277344 C 142.929688 216.277344 141.335938 215.644531 140.144531 214.484375 C 138.929688 213.316406 138.265625 211.734375 138.265625 210.039062 L 138.265625 170.246094 C 138.265625 168.546875 138.929688 166.96875 140.144531 165.796875 C 141.335938 164.636719 142.929688 164.003906 144.621094 164.003906 L 149.8125 164.003906 C 151.566406 159.066406 156.257812 155.710938 161.636719 155.710938 C 167.015625 155.710938 171.710938 159.066406 173.460938 164.003906 L 217.28125 164.003906 C 220.734375 164.003906 223.539062 166.800781 223.539062 170.246094 L 223.539062 210.039062 C 223.539062 213.480469 220.734375 216.277344 217.28125 216.277344 " fill-opacity="1" fill-rule="evenodd"/><path fill="#000000" d="M 164.765625 181.851562 L 139.828125 181.851562 C 138.96875 181.851562 138.265625 181.148438 138.265625 180.289062 C 138.265625 179.433594 138.96875 178.730469 139.828125 178.730469 L 164.765625 178.730469 C 165.628906 178.730469 166.332031 179.433594 166.332031 180.289062 C 166.332031 181.148438 165.628906 181.851562 164.765625 181.851562 Z M 221.972656 181.851562 L 197.234375 181.851562 C 196.371094 181.851562 195.667969 181.148438 195.667969 180.289062 C 195.667969 179.433594 196.371094 178.730469 197.234375 178.730469 L 221.972656 178.730469 C 222.835938 178.730469 223.539062 179.433594 223.539062 180.289062 C 223.539062 181.148438 222.835938 181.851562 221.972656 181.851562 Z M 164.765625 203.894531 L 139.828125 203.894531 C 138.96875 203.894531 138.265625 203.191406 138.265625 202.332031 C 138.265625 201.472656 138.96875 200.773438 139.828125 200.773438 L 164.765625 200.773438 C 165.628906 200.773438 166.332031 201.472656 166.332031 202.332031 C 166.332031 203.191406 165.628906 203.894531 164.765625 203.894531 Z M 221.972656 203.894531 L 197.234375 203.894531 C 196.371094 203.894531 195.667969 203.191406 195.667969 202.332031 C 195.667969 201.472656 196.371094 200.773438 197.234375 200.773438 L 221.972656 200.773438 C 222.835938 200.773438 223.539062 201.472656 223.539062 202.332031 C 223.539062 203.191406 222.835938 203.894531 221.972656 203.894531 " fill-opacity="1" fill-rule="evenodd"/><path fill="#000000" d="M 161.636719 164.492188 C 159.554688 164.492188 157.921875 166.121094 157.921875 168.199219 C 157.921875 170.273438 159.554688 171.902344 161.636719 171.902344 C 163.71875 171.902344 165.355469 170.273438 165.355469 168.199219 C 165.355469 166.121094 163.71875 164.492188 161.636719 164.492188 Z M 161.636719 175.023438 C 159.796875 175.023438 158.078125 174.3125 156.789062 173.035156 C 155.507812 171.746094 154.792969 170.03125 154.792969 168.199219 C 154.792969 166.363281 155.507812 164.644531 156.789062 163.359375 C 158.078125 162.070312 159.796875 161.371094 161.636719 161.371094 C 163.476562 161.371094 165.199219 162.082031 166.488281 163.359375 C 167.78125 164.644531 168.484375 166.363281 168.484375 168.199219 C 168.484375 170.03125 167.769531 171.746094 166.488281 173.035156 C 165.199219 174.3125 163.476562 175.023438 161.636719 175.023438 " fill-opacity="1" fill-rule="evenodd"/><path fill="#000000" d="M 181 173.269531 C 171.023438 173.269531 162.910156 181.363281 162.910156 191.3125 C 162.910156 201.261719 171.023438 209.355469 181 209.355469 C 190.976562 209.355469 199.09375 201.261719 199.09375 191.3125 C 199.09375 181.363281 190.976562 173.269531 181 173.269531 Z M 181 212.476562 C 169.292969 212.476562 159.78125 202.984375 159.78125 191.3125 C 159.78125 179.636719 169.292969 170.148438 181 170.148438 C 192.707031 170.148438 202.222656 179.636719 202.222656 191.3125 C 202.222656 202.984375 192.703125 212.476562 181 212.476562 " fill-opacity="1" fill-rule="evenodd"/><path fill="#000000" d="M 181 178.144531 C 173.722656 178.144531 167.796875 184.054688 167.796875 191.3125 C 167.796875 198.566406 173.722656 204.476562 181 204.476562 C 188.335938 204.476562 194.300781 198.566406 194.300781 191.3125 C 194.300781 184.054688 188.335938 178.144531 181 178.144531 Z M 181 207.601562 C 176.648438 207.601562 172.550781 205.910156 169.46875 202.847656 C 166.371094 199.777344 164.667969 195.683594 164.667969 191.3125 C 164.667969 186.980469 166.371094 182.894531 169.46875 179.8125 C 172.570312 176.730469 176.65625 175.023438 181 175.023438 C 190.054688 175.023438 197.429688 182.328125 197.429688 191.3125 C 197.429688 195.691406 195.71875 199.785156 192.617188 202.859375 C 189.519531 205.910156 185.390625 207.601562 181 207.601562 " fill-opacity="1" fill-rule="evenodd"/><path fill="#000000" d="M 172.003906 192.871094 C 171.144531 192.871094 170.4375 192.171875 170.4375 191.3125 C 170.4375 188.492188 171.535156 185.839844 173.527344 183.859375 C 175.523438 181.882812 178.175781 180.777344 181 180.777344 C 181.859375 180.777344 182.5625 181.480469 182.5625 182.339844 C 182.5625 183.195312 181.859375 183.898438 181 183.898438 C 176.902344 183.898438 173.566406 187.226562 173.566406 191.3125 C 173.566406 192.171875 172.863281 192.871094 172.003906 192.871094 " fill-opacity="1" fill-rule="evenodd"/><path fill="#000000" d="M 214.445312 172.097656 Z M 211.316406 173.757812 L 213.859375 173.757812 L 213.859375 172.097656 L 211.316406 172.097656 Z M 214.445312 176.878906 L 210.730469 176.878906 C 209.300781 176.878906 208.183594 175.71875 208.183594 174.242188 L 208.183594 171.511719 C 208.183594 170.070312 209.28125 168.976562 210.730469 168.976562 L 214.445312 168.976562 C 215.890625 168.976562 216.988281 170.070312 216.988281 171.511719 L 216.988281 174.242188 C 216.988281 175.71875 215.875 176.878906 214.445312 176.878906 " fill-opacity="1" fill-rule="evenodd"/><path fill="#000000" d="M 216.988281 198.429688 C 216.125 198.429688 215.421875 197.730469 215.421875 196.871094 L 215.421875 185.753906 C 215.421875 184.894531 216.125 184.191406 216.988281 184.191406 C 217.847656 184.191406 218.550781 184.894531 218.550781 185.753906 L 218.550781 196.871094 C 218.550781 197.730469 217.847656 198.429688 216.988281 198.429688 " fill-opacity="1" fill-rule="evenodd"/><path fill="#000000" d="M 144.816406 198.429688 C 143.957031 198.429688 143.25 197.730469 143.25 196.871094 L 143.25 185.753906 C 143.25 184.894531 143.957031 184.191406 144.816406 184.191406 C 145.675781 184.191406 146.382812 184.894531 146.382812 185.753906 L 146.382812 196.871094 C 146.382812 197.730469 145.675781 198.429688 144.816406 198.429688 " fill-opacity="1" fill-rule="evenodd"/></svg>