<svg xmlns="http://www.w3.org/2000/svg" xmlns:xlink="http://www.w3.org/1999/xlink" width="500" zoomAndPan="magnify" viewBox="0 0 375 374.999991" height="500" preserveAspectRatio="xMidYMid meet" version="1.0"><defs><clipPath id="125337b95a"><path d="M 121.011719 108.558594 L 260 108.558594 L 260 194 L 121.011719 194 Z M 121.011719 108.558594 " clip-rule="nonzero"/></clipPath></defs><g clip-path="url(#125337b95a)"><path fill="#010101" d="M 249.570312 167.976562 C 248.082031 165.191406 246.375 161.367188 245.902344 156.683594 C 244.898438 146.878906 249.074219 143.746094 235.757812 142.019531 C 227.605469 140.964844 219.339844 144.019531 213.703125 140.320312 C 211.808594 139.0625 208.511719 142.40625 202.292969 138.40625 C 201.226562 137.722656 197.25 138.515625 191.242188 133.683594 C 191.15625 133.609375 188.492188 132.441406 186.597656 131.769531 L 186.597656 108.558594 L 156.679688 108.558594 L 156.679688 164.261719 L 121.542969 164.261719 C 121.160156 168.015625 138.390625 179.046875 139.554688 184.5 C 140.324219 188.078125 142.53125 191.125 145.082031 193.335938 C 147.125 187.96875 152.9375 180.152344 162.054688 174.039062 C 164.964844 174.324219 168.929688 175.828125 170.863281 177.257812 C 172.113281 178.203125 174.109375 180.152344 176.625 184.214844 C 175.238281 181.804688 173.652344 179.144531 171.878906 177.554688 C 170.207031 176.066406 167.480469 174.363281 163.332031 173.640625 C 163.332031 173.640625 164.261719 171.40625 166.75 168.757812 C 166.75 168.757812 168.621094 168.683594 171.46875 167.527344 C 167.878906 168.148438 164.484375 168.574219 161.496094 168.671875 C 156.367188 168.847656 149.417969 168.894531 149.355469 168.324219 C 149.230469 167.191406 174.097656 163.613281 177.304688 163.066406 L 167.046875 164.324219 C 167.417969 163.328125 167.804688 162.410156 168.210938 161.527344 C 168.039062 160.882812 167.914062 160.210938 167.839844 159.515625 C 166.8125 150.457031 174.667969 142.132812 185.359375 140.925781 C 195.441406 139.785156 210.347656 147.75 205.761719 158.84375 C 206.222656 158.96875 206.804688 159.328125 206.929688 159.625 L 206.617188 159.675781 L 204.425781 160.011719 L 196.84375 161.167969 L 202.121094 160.644531 C 199.605469 161.191406 196.804688 161.863281 193.859375 162.570312 L 204.539062 160.546875 C 204.675781 161.453125 204.613281 162.546875 204.316406 163.824219 C 204.042969 165.007812 203.695312 166.398438 203.96875 168.039062 C 203.96875 168.039062 203.96875 168.039062 203.96875 168.050781 C 203.707031 168.96875 202.605469 169.390625 202.445312 170.027344 C 202.308594 170.585938 202.46875 171.082031 202.429688 171.492188 C 202.34375 172.636719 202.445312 174.089844 202.480469 175.429688 L 202.605469 170.90625 C 202.605469 170.710938 202.59375 170.398438 202.628906 170.136719 C 202.742188 169.34375 203.792969 169.121094 204.152344 168.0625 C 204.226562 168.0625 204.300781 168.0625 204.375 168.039062 C 204.808594 167.914062 204.699219 167.105469 205.292969 166.472656 C 206.914062 164.769531 214.871094 165.8125 216.976562 167.34375 C 217.644531 167.726562 217.433594 169.292969 217.433594 169.292969 L 216.925781 168.523438 L 216.914062 167.539062 L 216.828125 168.523438 C 215.28125 168.421875 214.511719 168.882812 214.152344 169.269531 C 215.082031 168.398438 216.816406 168.671875 216.816406 168.671875 L 217.335938 169.464844 C 216.296875 169.601562 213.382812 170.4375 214.472656 171.738281 C 215.476562 172.1875 217.445312 172.027344 218.128906 172 L 219.988281 169.703125 L 223.53125 169.601562 L 223.617188 169.9375 L 223.503906 178.597656 L 223.875 169.9375 L 234.925781 169.925781 C 237.171875 169.304688 238.382812 169.976562 238.382812 169.976562 L 244.949219 169.949219 L 245.359375 170.261719 L 250.066406 170.261719 C 250.425781 173.332031 250.105469 182.039062 250.105469 182.039062 C 250.464844 176.734375 250.5625 171.726562 250.601562 169.800781 C 250.601562 169.265625 250.613281 168.96875 250.613281 168.96875 C 250.6875 168.484375 252.097656 168.210938 253.683594 168.113281 C 255.679688 167.988281 257.722656 167.925781 259.78125 167.898438 Z M 170.9375 183.359375 C 170.9375 183.359375 167.46875 181.234375 161.769531 181.210938 L 161.695312 181.644531 C 161.695312 181.644531 165.785156 180.9375 170.9375 183.359375 Z M 209.007812 166.90625 L 207.210938 166.90625 C 206.777344 166.90625 206.394531 167.195312 206.195312 167.589844 C 206.359375 167.105469 206.777344 166.769531 207.273438 166.769531 L 208.945312 166.769531 C 209.441406 166.769531 209.863281 167.105469 210.023438 167.589844 C 209.828125 167.195312 209.441406 166.90625 209.007812 166.90625 Z M 185.753906 164.871094 C 185.53125 166.199219 185.371094 168 185.71875 169.914062 C 186.746094 164.683594 187.414062 165.15625 190.277344 163.441406 C 188.800781 163.789062 187.316406 164.148438 185.816406 164.511719 C 183.722656 165.007812 181.617188 165.492188 179.523438 165.953125 Z M 173.425781 149.078125 C 182.730469 141.027344 194.785156 142.902344 202.183594 149.164062 C 198.019531 144.953125 190.984375 142.605469 185.480469 143.261719 C 180.648438 143.835938 176.4375 145.996094 173.425781 149.078125 Z M 173.425781 149.078125 " fill-opacity="1" fill-rule="evenodd"/></g><path fill="#010101" d="M 207.484375 199.683594 C 205.625 203.636719 203.457031 206.507812 203.457031 206.507812 C 199.777344 206.792969 197.476562 206.234375 196.992188 206.097656 C 200.0625 206.980469 203.050781 206.867188 203.050781 206.867188 L 199.359375 212.085938 L 199.011719 212.582031 L 194.140625 218.136719 C 196.136719 222.660156 197.621094 229.804688 205.8125 232.511719 C 218.695312 236.761719 215.3125 237.542969 214.597656 219.28125 C 214.296875 211.898438 227.082031 202.023438 233.453125 198.765625 C 242.1875 194.292969 247.476562 193.238281 250.089844 188.515625 L 257.945312 188.429688 L 251.253906 187.957031 C 250.96875 187.855469 250.746094 187.71875 250.5625 187.570312 C 249.753906 186.914062 249.792969 185.917969 249.792969 185.917969 L 245.046875 185.707031 C 243.289062 186.429688 239.386719 185.84375 239.261719 185.65625 C 237.191406 186.292969 234.789062 185.957031 234.789062 185.957031 L 234.863281 178.003906 L 234.429688 185.792969 L 232.273438 185.820312 C 223.539062 185.90625 218.933594 185.941406 218.933594 185.941406 C 218.894531 185.074219 218.375 184.203125 217.171875 183.78125 C 217.308594 183.832031 217.433594 183.882812 217.558594 183.957031 C 219.277344 184.988281 219.242188 187.011719 216.691406 187.90625 C 215.539062 188.304688 213.902344 188.789062 212.503906 189.535156 C 210.1875 190.765625 207.769531 191.734375 207.695312 191.78125 C 205.8125 192.9375 205.515625 194.628906 205.492188 195.847656 C 199.914062 196.007812 196.757812 193.25 196.757812 193.25 C 198.738281 195.136719 202.664062 196.082031 205.476562 196.019531 C 206.195312 196.007812 206.828125 195.933594 207.347656 195.785156 C 207.585938 197.335938 208.105469 198.355469 207.484375 199.683594 Z M 192.78125 201.585938 C 194.515625 202.246094 196.273438 204.21875 195.183594 206.171875 C 195.902344 208.46875 197.164062 210.074219 198.105469 211.015625 C 195.777344 208.035156 195.519531 206.183594 195.519531 206.183594 C 196.582031 204.132812 194.824219 202.007812 193.101562 201.4375 C 192.667969 199.957031 192.097656 199.027344 191.800781 198.617188 L 195.519531 190.378906 C 195.519531 190.441406 195.503906 190.492188 195.503906 190.550781 C 195.652344 190.203125 195.839844 189.621094 196.210938 189.433594 C 199.433594 187.84375 198.515625 180.179688 199.433594 179.445312 C 198.070312 178.734375 196.992188 177.121094 197.164062 175.617188 C 196.71875 177.730469 198.664062 179.394531 198.664062 179.394531 C 197.746094 180.476562 199.285156 182.425781 196.757812 182.835938 C 196.285156 180.785156 193.734375 180.527344 193.734375 180.527344 C 195.480469 180.847656 196.65625 182.027344 196.71875 183.496094 C 196.820312 185.804688 195.914062 185.683594 194.835938 185.59375 C 194.304688 185.546875 193.917969 185.582031 193.621094 185.71875 C 192.816406 186.105469 189.90625 192.117188 185.46875 187.570312 C 182.421875 184.441406 178.382812 176.734375 179.546875 172.015625 C 178.222656 176.921875 181.519531 182.972656 181.519531 182.972656 C 181.492188 184.226562 181.46875 185.222656 181.445312 185.941406 C 177.824219 175.246094 174.148438 173.207031 174.148438 173.207031 C 174.617188 173.640625 175.027344 174.066406 175.371094 174.460938 C 177.988281 177.433594 179.796875 182.835938 181.40625 187.148438 C 181.652344 187.820312 181.902344 188.453125 182.136719 189.0625 L 186.660156 191.683594 C 189.113281 193.101562 190.597656 195.496094 190.894531 198.378906 C 191.167969 198.59375 191.402344 198.816406 191.613281 199.050781 C 192.617188 200.230469 192.78125 201.585938 192.78125 201.585938 Z M 206.011719 186.949219 C 204.773438 186.925781 205.28125 184.984375 203.457031 185.148438 C 203.519531 185.148438 203.59375 185.148438 203.667969 185.148438 C 204.5625 185.085938 204.808594 186.265625 205.378906 187.234375 C 205.566406 187.261719 213.742188 187.410156 214.136719 187.421875 C 215.214844 187.472656 216.652344 187.335938 216.515625 186.230469 C 216.8125 186.328125 217.324219 186.441406 217.695312 186.292969 C 216.378906 186.589844 214.980469 184.863281 214.917969 184.777344 C 214.644531 184.425781 214.585938 184.128906 214.609375 183.90625 C 214.410156 184.675781 215.785156 185.792969 216.28125 186.203125 C 216.355469 186.265625 216.34375 186.378906 216.320312 186.476562 C 216.15625 186.988281 215.402344 187.171875 214.917969 187.160156 Z M 200.152344 178.289062 C 199.839844 177.71875 198.910156 177.144531 198.082031 177.394531 L 199.34375 178.636719 C 200.078125 179.371094 200.472656 178.886719 200.152344 178.289062 Z M 201.464844 179.65625 C 202.097656 179.359375 202.320312 178.75 202.320312 178.75 C 202.332031 179.953125 202.320312 180.738281 202.320312 180.738281 L 202.394531 178.101562 C 202.304688 178.625 202.15625 179.035156 201.921875 179.296875 C 201.785156 179.433594 201.636719 179.558594 201.464844 179.65625 Z M 169.5625 213.066406 C 168.855469 212.84375 168.507812 212.742188 168.507812 212.742188 C 168.507812 212.742188 169.425781 198.070312 178.582031 194.15625 C 169.328125 198.457031 169.5625 213.066406 169.5625 213.066406 Z M 263.050781 182.773438 C 262.964844 183.445312 268.6875 184.652344 269.777344 184.949219 C 270.074219 187.792969 268.957031 189.210938 268.957031 189.210938 C 270.246094 187.820312 270.445312 186.539062 270.445312 186.539062 C 270.496094 185.992188 270.46875 185.433594 270.421875 184.875 L 270.371094 184.441406 L 269.9375 184.316406 C 269.503906 184.203125 269.046875 184.105469 268.601562 183.992188 C 267.929688 183.832031 267.273438 183.671875 266.605469 183.496094 C 265.9375 183.320312 265.265625 183.136719 264.609375 182.914062 C 264.460938 182.863281 264.101562 182.75 263.84375 182.625 C 264.042969 182.351562 264.375 181.992188 264.488281 181.867188 C 265.042969 181.257812 265.613281 180.664062 266.121094 180.015625 C 266.914062 179.035156 267.695312 177.804688 267.671875 176.488281 C 267.671875 176.191406 267.621094 175.890625 267.523438 175.59375 C 267.113281 174.328125 266.394531 173.445312 265.355469 172.636719 C 265.007812 172.363281 264.636719 172.128906 264.289062 171.855469 C 264.140625 171.742188 263.964844 171.59375 263.84375 171.445312 C 264.054688 171.34375 264.386719 171.246094 264.511719 171.21875 C 265.082031 171.070312 265.675781 170.972656 266.257812 170.886719 C 266.890625 170.796875 267.523438 170.710938 268.152344 170.625 C 268.4375 170.574219 268.859375 170.511719 269.195312 170.414062 C 269.195312 170.414062 270.878906 169.644531 269.292969 167.816406 C 270.222656 169.007812 269.679688 169.457031 269.21875 169.707031 C 268.402344 170.152344 262.441406 170.300781 263.136719 171.558594 C 263.804688 172.761719 266.074219 173.195312 266.914062 175.792969 C 267.808594 178.585938 263.222656 181.617188 263.050781 182.773438 Z M 263.050781 182.773438 " fill-opacity="1" fill-rule="evenodd"/><path fill="#010101" d="M 169.277344 131.570312 L 168.375 134.355469 C 168.375 134.441406 168.433594 134.515625 168.523438 134.515625 C 168.535156 134.515625 168.558594 134.515625 168.570312 134.515625 L 170.9375 132.777344 L 173.265625 134.492188 C 173.292969 134.503906 173.316406 134.503906 173.339844 134.503906 C 173.425781 134.503906 173.488281 134.441406 173.488281 134.355469 C 173.488281 134.34375 173.488281 134.34375 173.488281 134.328125 L 172.597656 131.570312 L 174.953125 129.871094 C 174.976562 129.832031 174.988281 129.808594 174.988281 129.757812 C 174.988281 129.695312 174.9375 129.632812 174.863281 129.609375 L 171.953125 129.621094 L 171.074219 126.875 C 171.046875 126.8125 171 126.773438 170.9375 126.773438 C 170.875 126.773438 170.8125 126.8125 170.789062 126.863281 L 169.910156 129.621094 L 167.011719 129.609375 C 166.9375 129.621094 166.886719 129.695312 166.886719 129.769531 C 166.886719 129.804688 166.898438 129.84375 166.9375 129.867188 Z M 169.277344 131.570312 " fill-opacity="1" fill-rule="evenodd"/></svg>