<svg xmlns="http://www.w3.org/2000/svg" xmlns:xlink="http://www.w3.org/1999/xlink" width="500" zoomAndPan="magnify" viewBox="0 0 375 374.999991" height="500" preserveAspectRatio="xMidYMid meet" version="1.0"><defs><clipPath id="02ce1630d7"><path d="M 104.519531 115.109375 L 254.519531 115.109375 L 254.519531 233.609375 L 104.519531 233.609375 Z M 104.519531 115.109375 " clip-rule="nonzero"/></clipPath></defs><g clip-path="url(#02ce1630d7)"><path fill="#000000" d="M 179.289062 233.566406 C 160.714844 233.570312 142.136719 233.578125 123.5625 233.566406 C 111.691406 233.558594 104.539062 226.378906 104.53125 214.480469 C 104.519531 193.730469 104.519531 172.976562 104.527344 152.226562 C 104.53125 140.355469 111.746094 133.160156 123.621094 133.15625 C 136.445312 133.148438 149.265625 133.113281 162.089844 133.203125 C 163.984375 133.214844 164.816406 132.617188 165.636719 130.886719 C 170.308594 121.078125 178.09375 115.628906 189.011719 115.40625 C 195.753906 115.265625 202.597656 115.117188 209.226562 116.113281 C 217.640625 117.371094 223.648438 122.699219 227.203125 130.417969 C 228.246094 132.6875 229.433594 133.433594 231.726562 133.1875 C 233.222656 133.023438 234.753906 133.144531 236.265625 133.15625 C 246.640625 133.230469 254.273438 140.398438 254.351562 150.757812 C 254.515625 172.621094 254.523438 194.488281 254.335938 216.351562 C 254.25 226.363281 246.660156 233.507812 236.53125 233.546875 C 217.453125 233.617188 198.371094 233.566406 179.289062 233.566406 Z M 196.796875 142.664062 C 174.519531 142.488281 156.042969 160.628906 155.886719 182.832031 C 155.722656 205.539062 173.820312 224.066406 196.292969 224.199219 C 218.683594 224.332031 237.007812 206.148438 237.160156 183.644531 C 237.308594 161.105469 219.324219 142.839844 196.796875 142.664062 Z M 127.625 144.601562 C 121.753906 144.625 117 149.429688 117.089844 155.257812 C 117.179688 160.972656 121.882812 165.695312 127.546875 165.757812 C 133.34375 165.820312 138.1875 161.023438 138.21875 155.179688 C 138.25 149.316406 133.515625 144.585938 127.625 144.601562 Z M 127.625 144.601562 " fill-opacity="1" fill-rule="nonzero"/></g><path fill="#000000" d="M 196.445312 154.3125 C 212.582031 154.277344 225.539062 167.207031 225.546875 183.363281 C 225.558594 199.449219 212.4375 212.636719 196.492188 212.550781 C 180.59375 212.464844 167.589844 199.480469 167.460938 183.5625 C 167.339844 167.554688 180.421875 154.347656 196.445312 154.3125 Z M 196.445312 154.3125 " fill-opacity="1" fill-rule="nonzero"/></svg>