<svg xmlns="http://www.w3.org/2000/svg" xmlns:xlink="http://www.w3.org/1999/xlink" width="2245" zoomAndPan="magnify" viewBox="0 0 1683.75 1190.250009" height="1587" preserveAspectRatio="xMidYMid meet" version="1.0"><defs><clipPath id="06f8f94a07"><path d="M 1079 504.542969 L 1683 504.542969 L 1683 980.566406 L 1079 980.566406 Z M 1079 504.542969 " clip-rule="nonzero"/></clipPath><clipPath id="acc6d1bf47"><path d="M 2 507 L 501.914062 507 L 501.914062 979 L 2 979 Z M 2 507 " clip-rule="nonzero"/></clipPath></defs><g clip-path="url(#06f8f94a07)"><path fill="#000000" d="M 1257.84375 504.542969 L 1257.84375 504.976562 C 1200.921875 509.324219 1155.886719 556.972656 1155.886719 615.050781 L 1155.886719 827.558594 L 1104.90625 827.558594 C 1090.933594 827.558594 1079.414062 839.078125 1079.414062 853.058594 C 1079.414062 867.039062 1090.933594 878.558594 1104.90625 878.558594 L 1393.789062 878.558594 L 1393.789062 980.566406 L 1410.785156 980.566406 L 1410.785156 878.558594 L 1444.769531 878.558594 L 1444.769531 980.566406 L 1461.761719 980.566406 L 1461.761719 878.558594 L 1657.183594 878.558594 C 1671.15625 878.558594 1682.675781 867.039062 1682.675781 853.058594 C 1682.675781 842.367188 1675.074219 834.863281 1665.683594 831.109375 L 1665.683594 615.050781 C 1665.683594 554.117188 1616.128906 504.542969 1555.226562 504.542969 L 1266.339844 504.542969 C 1264.914062 504.542969 1263.519531 504.710938 1262.09375 504.777344 C 1260.664062 504.710938 1259.273438 504.542969 1257.84375 504.542969 Z M 1316.425781 521.542969 L 1555.226562 521.542969 C 1606.9375 521.542969 1648.6875 563.316406 1648.6875 615.050781 L 1648.6875 836.058594 C 1648.6875 840.742188 1652.503906 844.558594 1657.183594 844.558594 C 1661.996094 844.558594 1665.683594 848.246094 1665.683594 853.058594 C 1665.683594 857.875 1661.996094 861.558594 1657.183594 861.558594 L 1104.90625 861.558594 C 1100.09375 861.558594 1096.410156 857.875 1096.410156 853.058594 C 1096.410156 848.246094 1100.09375 844.558594 1104.90625 844.558594 L 1359.804688 844.558594 C 1362.324219 844.59375 1364.714844 843.496094 1366.34375 841.605469 C 1367.96875 839.710938 1368.699219 837.1875 1368.300781 834.730469 L 1368.300781 615.050781 C 1368.300781 575.667969 1347.523438 541.136719 1316.425781 521.542969 Z M 1262.09375 521.777344 C 1311.8125 524 1351.308594 564.742188 1351.308594 615.050781 L 1351.308594 827.558594 L 1172.878906 827.558594 L 1172.878906 615.050781 C 1172.878906 564.742188 1212.375 524 1262.09375 521.777344 Z M 1461.761719 606.546875 C 1452.371094 606.546875 1444.769531 614.152344 1444.769531 623.550781 C 1444.769531 632.945312 1452.371094 640.550781 1461.761719 640.550781 C 1467.835938 640.550781 1473.414062 637.296875 1476.464844 632.050781 L 1546.730469 632.050781 L 1546.730469 691.550781 C 1546.730469 696.234375 1550.546875 700.050781 1555.226562 700.050781 L 1597.707031 700.050781 C 1602.386719 700.050781 1606.207031 696.234375 1606.207031 691.550781 L 1606.207031 623.550781 C 1606.207031 618.867188 1602.386719 615.050781 1597.707031 615.050781 L 1556.652344 615.050781 C 1556.121094 614.949219 1555.625 614.914062 1555.09375 614.914062 C 1554.695312 614.949219 1554.296875 614.984375 1553.898438 615.050781 L 1476.464844 615.050781 C 1473.445312 609.800781 1467.835938 606.546875 1461.761719 606.546875 Z M 1563.722656 632.050781 L 1589.210938 632.050781 L 1589.210938 683.050781 L 1563.722656 683.050781 Z M 1393.789062 827.558594 C 1389.109375 827.558594 1385.292969 831.375 1385.292969 836.058594 C 1385.292969 840.742188 1389.109375 844.558594 1393.789062 844.558594 C 1398.46875 844.558594 1402.285156 840.742188 1402.285156 836.058594 C 1402.285156 831.375 1398.46875 827.558594 1393.789062 827.558594 Z M 1427.777344 827.558594 C 1423.097656 827.558594 1419.28125 831.375 1419.28125 836.058594 C 1419.28125 840.742188 1423.097656 844.558594 1427.777344 844.558594 C 1432.457031 844.558594 1436.273438 840.742188 1436.273438 836.058594 C 1436.273438 831.375 1432.457031 827.558594 1427.777344 827.558594 Z M 1461.761719 827.558594 C 1457.082031 827.558594 1453.265625 831.375 1453.265625 836.058594 C 1453.265625 840.742188 1457.082031 844.558594 1461.761719 844.558594 C 1466.441406 844.558594 1470.257812 840.742188 1470.257812 836.058594 C 1470.257812 831.375 1466.441406 827.558594 1461.761719 827.558594 Z M 1495.75 827.558594 C 1491.070312 827.558594 1487.253906 831.375 1487.253906 836.058594 C 1487.253906 840.742188 1491.070312 844.558594 1495.75 844.558594 C 1500.429688 844.558594 1504.246094 840.742188 1504.246094 836.058594 C 1504.246094 831.375 1500.429688 827.558594 1495.75 827.558594 Z M 1529.734375 827.558594 C 1525.054688 827.558594 1521.238281 831.375 1521.238281 836.058594 C 1521.238281 840.742188 1525.054688 844.558594 1529.734375 844.558594 C 1534.414062 844.558594 1538.234375 840.742188 1538.234375 836.058594 C 1538.234375 831.375 1534.414062 827.558594 1529.734375 827.558594 Z M 1563.722656 827.558594 C 1559.042969 827.558594 1555.226562 831.375 1555.226562 836.058594 C 1555.226562 840.742188 1559.042969 844.558594 1563.722656 844.558594 C 1568.402344 844.558594 1572.21875 840.742188 1572.21875 836.058594 C 1572.21875 831.375 1568.402344 827.558594 1563.722656 827.558594 Z M 1597.707031 827.558594 C 1593.027344 827.558594 1589.210938 831.375 1589.210938 836.058594 C 1589.210938 840.742188 1593.027344 844.558594 1597.707031 844.558594 C 1602.386719 844.558594 1606.207031 840.742188 1606.207031 836.058594 C 1606.207031 831.375 1602.386719 827.558594 1597.707031 827.558594 Z M 1631.695312 827.558594 C 1627.015625 827.558594 1623.199219 831.375 1623.199219 836.058594 C 1623.199219 840.742188 1627.015625 844.558594 1631.695312 844.558594 C 1636.375 844.558594 1640.191406 840.742188 1640.191406 836.058594 C 1640.191406 831.375 1636.375 827.558594 1631.695312 827.558594 Z M 1631.695312 827.558594 " fill-opacity="1" fill-rule="nonzero"/></g><g clip-path="url(#acc6d1bf47)"><path fill="#000000" d="M 8.679688 973.808594 C 10.429688 975.382812 12.398438 976.597656 14.589844 977.453125 C 16.78125 978.308594 19.054688 978.75 21.40625 978.777344 C 24.246094 978.746094 26.960938 978.152344 29.554688 976.992188 L 491.222656 760.511719 C 491.859375 760.144531 492.453125 759.722656 493.003906 759.238281 C 493.988281 758.671875 494.921875 758.035156 495.804688 757.328125 L 497.839844 755.035156 C 498.558594 754.246094 499.195312 753.398438 499.75 752.488281 C 500.25 751.457031 500.675781 750.394531 501.023438 749.304688 C 501.332031 748.6875 501.585938 748.050781 501.785156 747.394531 C 501.851562 747.097656 501.851562 746.800781 501.785156 746.503906 C 502.128906 744.292969 502.128906 742.085938 501.785156 739.878906 C 501.851562 739.582031 501.851562 739.285156 501.785156 738.988281 C 501.585938 738.332031 501.332031 737.695312 501.023438 737.078125 C 500.675781 735.988281 500.25 734.925781 499.75 733.894531 C 499.195312 732.984375 498.558594 732.136719 497.839844 731.347656 L 495.804688 729.054688 C 494.921875 728.347656 493.988281 727.710938 493.003906 727.144531 C 492.453125 726.660156 491.859375 726.238281 491.222656 725.871094 L 29.554688 509.386719 C 28.703125 508.988281 27.828125 508.652344 26.925781 508.382812 C 26.027344 508.109375 25.109375 507.90625 24.179688 507.773438 C 23.25 507.636719 22.316406 507.570312 21.375 507.574219 C 20.433594 507.574219 19.5 507.648438 18.570312 507.789062 C 17.640625 507.929688 16.726562 508.136719 15.828125 508.414062 C 14.925781 508.691406 14.054688 509.03125 13.207031 509.4375 C 12.355469 509.839844 11.542969 510.304688 10.761719 510.832031 C 9.984375 511.359375 9.246094 511.9375 8.550781 512.570312 C 7.855469 513.210938 7.207031 513.898438 6.609375 514.632812 C 6.015625 515.363281 5.472656 516.140625 4.992188 516.953125 C 4.511719 517.765625 4.089844 518.609375 3.730469 519.488281 C 3.375 520.363281 3.082031 521.257812 2.859375 522.179688 C 2.632812 523.097656 2.476562 524.027344 2.386719 524.96875 C 2.300781 525.910156 2.28125 526.855469 2.332031 527.796875 C 2.382812 528.742188 2.503906 529.679688 2.691406 530.605469 C 2.882812 531.53125 3.136719 532.441406 3.460938 533.328125 L 80.722656 743.191406 L 3.585938 953.054688 C 3.265625 953.941406 3.007812 954.851562 2.820312 955.777344 C 2.628906 956.703125 2.511719 957.640625 2.460938 958.582031 C 2.40625 959.527344 2.425781 960.472656 2.515625 961.414062 C 2.601562 962.355469 2.757812 963.285156 2.984375 964.203125 C 3.210938 965.121094 3.5 966.019531 3.859375 966.894531 C 4.21875 967.773438 4.636719 968.617188 5.121094 969.429688 C 5.601562 970.242188 6.140625 971.015625 6.738281 971.75 C 7.335938 972.484375 7.980469 973.171875 8.679688 973.808594 Z M 55.519531 563.765625 L 397.539062 724.089844 L 114.453125 724.089844 Z M 114.453125 762.292969 L 397.539062 762.292969 L 55.519531 922.617188 Z M 114.453125 762.292969 " fill-opacity="1" fill-rule="nonzero"/></g></svg>