<svg xmlns="http://www.w3.org/2000/svg" xmlns:xlink="http://www.w3.org/1999/xlink" width="500" zoomAndPan="magnify" viewBox="0 0 375 374.999991" height="500" preserveAspectRatio="xMidYMid meet" version="1.0"><defs><clipPath id="ea32546a78"><path d="M 125 122 L 225 122 L 225 239.730469 L 125 239.730469 Z M 125 122 " clip-rule="nonzero"/></clipPath><clipPath id="6caa3fae41"><path d="M 224 189 L 274.394531 189 L 274.394531 239.730469 L 224 239.730469 Z M 224 189 " clip-rule="nonzero"/></clipPath></defs><path fill="#333333" d="M 210.890625 167.011719 C 210.675781 166.902344 210.570312 166.691406 210.460938 166.15625 C 210.570312 166.476562 210.675781 166.691406 210.890625 167.011719 Z M 210.890625 167.011719 " fill-opacity="1" fill-rule="nonzero"/><g clip-path="url(#ea32546a78)"><path fill="#333333" d="M 219.335938 226.988281 C 219.335938 231.90625 221.261719 236.398438 224.46875 239.710938 L 130.8125 239.710938 C 127.175781 239.710938 124.394531 236.289062 125.25 232.65625 L 128.457031 218.863281 C 130.277344 213.730469 134.230469 209.777344 139.363281 207.957031 L 141.503906 207.210938 C 146.207031 205.605469 150.910156 204.535156 155.828125 203.789062 C 161.601562 202.933594 167.054688 200.6875 171.972656 197.265625 L 172.507812 196.839844 C 174.433594 195.449219 175.820312 193.417969 176.140625 191.171875 C 176.464844 189.035156 176.035156 186.683594 174.433594 184.757812 C 174.324219 184.542969 174.21875 184.4375 174.003906 184.222656 C 173.898438 184.117188 173.789062 183.902344 173.578125 183.796875 C 170.261719 180.375 166.628906 175.671875 164.59375 169.578125 C 161.601562 169.253906 159.144531 166.582031 158.714844 162.949219 L 158.394531 160.703125 C 157.96875 157.066406 159.675781 153.644531 162.457031 152.363281 C 162.351562 150.117188 162.351562 148.195312 162.351562 146.484375 C 162.457031 139.425781 165.878906 132.691406 171.652344 128.628906 C 176.140625 125.421875 180.847656 122 187.6875 122.320312 C 187.902344 122.320312 199.769531 122.320312 203.085938 130.445312 C 203.085938 130.445312 204.796875 130.660156 206.828125 131.40625 C 209.605469 132.371094 211.957031 134.402344 213.242188 137.074219 C 213.347656 137.289062 213.457031 137.503906 213.5625 137.714844 C 214.738281 140.390625 215.378906 143.382812 215.488281 146.484375 C 215.488281 148.195312 215.488281 150.226562 215.378906 152.363281 C 218.050781 153.644531 219.871094 156.960938 219.441406 160.703125 L 219.121094 162.949219 C 218.695312 166.476562 216.234375 169.253906 213.242188 169.578125 C 211.210938 175.671875 207.574219 180.480469 204.261719 183.796875 C 204.152344 183.902344 203.941406 184.117188 203.832031 184.222656 C 203.726562 184.332031 203.511719 184.542969 203.40625 184.757812 C 201.910156 186.683594 201.375 189.035156 201.695312 191.171875 C 202.015625 193.523438 203.511719 195.554688 205.328125 196.839844 L 205.863281 197.160156 C 209.820312 199.941406 214.203125 201.972656 218.90625 203.039062 L 218.90625 226.988281 Z M 219.335938 226.988281 " fill-opacity="1" fill-rule="nonzero"/></g><g clip-path="url(#6caa3fae41)"><path fill="#333333" d="M 261.78125 189.996094 L 237.511719 189.996094 C 230.5625 189.996094 224.894531 195.664062 224.894531 202.71875 L 224.894531 226.988281 C 224.894531 233.9375 230.5625 239.710938 237.511719 239.710938 L 261.78125 239.710938 C 268.730469 239.710938 274.394531 234.046875 274.394531 226.988281 L 274.394531 202.71875 C 274.394531 195.664062 268.730469 189.996094 261.78125 189.996094 Z M 270.226562 226.988281 C 270.226562 231.691406 266.378906 235.433594 261.78125 235.433594 L 237.511719 235.433594 C 232.808594 235.433594 229.066406 231.585938 229.066406 226.988281 L 229.066406 202.71875 C 229.066406 198.015625 232.914062 194.273438 237.511719 194.273438 L 261.78125 194.273438 C 266.484375 194.273438 270.226562 198.121094 270.226562 202.71875 Z M 270.226562 226.988281 " fill-opacity="1" fill-rule="nonzero"/></g><path fill="#333333" d="M 261.03125 211.699219 L 261.03125 217.902344 L 252.691406 217.902344 L 252.691406 226.242188 L 246.492188 226.242188 L 246.492188 217.902344 L 238.257812 217.902344 L 238.257812 211.699219 L 246.492188 211.699219 L 246.492188 203.46875 L 252.691406 203.46875 L 252.691406 211.699219 Z M 261.03125 211.699219 " fill-opacity="1" fill-rule="nonzero"/></svg>