<svg xmlns="http://www.w3.org/2000/svg" xmlns:xlink="http://www.w3.org/1999/xlink" width="500" zoomAndPan="magnify" viewBox="0 0 375 374.999991" height="500" preserveAspectRatio="xMidYMid meet" version="1.0"><defs><clipPath id="37e223db39"><path d="M 141 100.5625 L 198 100.5625 L 198 157 L 141 157 Z M 141 100.5625 " clip-rule="nonzero"/></clipPath><clipPath id="4c0a2afb57"><path d="M 111.867188 154 L 227 154 L 227 250.5625 L 111.867188 250.5625 Z M 111.867188 154 " clip-rule="nonzero"/></clipPath><clipPath id="ed2350d7b7"><path d="M 189 175 L 238.617188 175 L 238.617188 225 L 189 225 Z M 189 175 " clip-rule="nonzero"/></clipPath></defs><g clip-path="url(#37e223db39)"><path fill="#000000" d="M 169.375 156.8125 C 170.296875 156.8125 171.214844 156.769531 172.136719 156.679688 C 173.054688 156.589844 173.964844 156.453125 174.867188 156.273438 C 175.773438 156.09375 176.667969 155.871094 177.550781 155.601562 C 178.433594 155.335938 179.300781 155.027344 180.152344 154.671875 C 181.003906 154.320312 181.839844 153.925781 182.652344 153.492188 C 183.464844 153.058594 184.253906 152.585938 185.023438 152.074219 C 185.789062 151.5625 186.53125 151.015625 187.242188 150.429688 C 187.957031 149.84375 188.636719 149.226562 189.289062 148.578125 C 189.941406 147.925781 190.5625 147.242188 191.148438 146.53125 C 191.730469 145.820312 192.28125 145.082031 192.792969 144.3125 C 193.304688 143.546875 193.78125 142.757812 194.214844 141.945312 C 194.648438 141.132812 195.042969 140.304688 195.398438 139.453125 C 195.75 138.601562 196.058594 137.734375 196.328125 136.851562 C 196.59375 135.972656 196.820312 135.078125 197 134.175781 C 197.179688 133.273438 197.316406 132.363281 197.40625 131.445312 C 197.496094 130.527344 197.539062 129.609375 197.539062 128.6875 C 197.539062 127.769531 197.496094 126.847656 197.40625 125.933594 C 197.316406 125.015625 197.179688 124.105469 197 123.203125 C 196.820312 122.296875 196.59375 121.40625 196.328125 120.523438 C 196.058594 119.644531 195.75 118.777344 195.398438 117.925781 C 195.042969 117.074219 194.648438 116.242188 194.214844 115.429688 C 193.78125 114.617188 193.304688 113.828125 192.792969 113.0625 C 192.28125 112.296875 191.730469 111.558594 191.148438 110.847656 C 190.5625 110.132812 189.941406 109.453125 189.289062 108.800781 C 188.636719 108.148438 187.957031 107.53125 187.242188 106.949219 C 186.53125 106.363281 185.789062 105.816406 185.023438 105.304688 C 184.253906 104.792969 183.464844 104.320312 182.652344 103.886719 C 181.839844 103.449219 181.003906 103.058594 180.152344 102.703125 C 179.300781 102.351562 178.433594 102.042969 177.550781 101.773438 C 176.667969 101.507812 175.773438 101.285156 174.867188 101.105469 C 173.964844 100.925781 173.054688 100.789062 172.136719 100.699219 C 171.214844 100.609375 170.296875 100.5625 169.375 100.5625 C 168.453125 100.5625 167.53125 100.609375 166.613281 100.699219 C 165.695312 100.789062 164.785156 100.925781 163.878906 101.105469 C 162.972656 101.285156 162.082031 101.507812 161.199219 101.773438 C 160.316406 102.042969 159.449219 102.351562 158.59375 102.703125 C 157.742188 103.058594 156.910156 103.449219 156.097656 103.886719 C 155.28125 104.320312 154.492188 104.792969 153.726562 105.304688 C 152.957031 105.816406 152.21875 106.363281 151.503906 106.949219 C 150.792969 107.53125 150.109375 108.148438 149.457031 108.800781 C 148.804688 109.453125 148.1875 110.132812 147.601562 110.847656 C 147.015625 111.558594 146.464844 112.296875 145.953125 113.0625 C 145.441406 113.828125 144.96875 114.617188 144.53125 115.429688 C 144.097656 116.242188 143.703125 117.074219 143.351562 117.925781 C 143 118.777344 142.6875 119.644531 142.421875 120.523438 C 142.152344 121.40625 141.929688 122.296875 141.75 123.203125 C 141.570312 124.105469 141.433594 125.015625 141.34375 125.933594 C 141.253906 126.847656 141.207031 127.769531 141.207031 128.6875 C 141.207031 129.609375 141.253906 130.527344 141.347656 131.445312 C 141.4375 132.359375 141.574219 133.269531 141.753906 134.171875 C 141.933594 135.078125 142.160156 135.96875 142.425781 136.847656 C 142.695312 137.730469 143.007812 138.597656 143.359375 139.445312 C 143.714844 140.296875 144.109375 141.128906 144.542969 141.941406 C 144.976562 142.753906 145.453125 143.542969 145.964844 144.308594 C 146.476562 145.074219 147.023438 145.8125 147.609375 146.523438 C 148.195312 147.234375 148.8125 147.914062 149.464844 148.566406 C 150.117188 149.21875 150.800781 149.835938 151.515625 150.421875 C 152.226562 151.003906 152.964844 151.550781 153.734375 152.0625 C 154.5 152.574219 155.289062 153.050781 156.101562 153.484375 C 156.914062 153.917969 157.75 154.3125 158.601562 154.664062 C 159.453125 155.015625 160.320312 155.328125 161.199219 155.59375 C 162.082031 155.863281 162.976562 156.085938 163.882812 156.269531 C 164.785156 156.449219 165.695312 156.585938 166.613281 156.675781 C 167.53125 156.765625 168.453125 156.8125 169.375 156.8125 Z M 169.375 105.25 C 170.144531 105.25 170.910156 105.289062 171.675781 105.363281 C 172.441406 105.4375 173.199219 105.550781 173.953125 105.703125 C 174.707031 105.851562 175.453125 106.039062 176.1875 106.261719 C 176.921875 106.484375 177.644531 106.742188 178.355469 107.035156 C 179.066406 107.328125 179.761719 107.65625 180.4375 108.019531 C 181.117188 108.378906 181.773438 108.773438 182.414062 109.203125 C 183.054688 109.628906 183.671875 110.085938 184.265625 110.570312 C 184.859375 111.058594 185.425781 111.574219 185.972656 112.117188 C 186.515625 112.660156 187.03125 113.226562 187.519531 113.820312 C 188.007812 114.414062 188.464844 115.03125 188.890625 115.667969 C 189.316406 116.304688 189.710938 116.964844 190.074219 117.640625 C 190.4375 118.316406 190.765625 119.011719 191.058594 119.71875 C 191.355469 120.429688 191.613281 121.152344 191.835938 121.886719 C 192.058594 122.621094 192.246094 123.363281 192.394531 124.117188 C 192.546875 124.871094 192.65625 125.628906 192.734375 126.390625 C 192.808594 127.15625 192.847656 127.921875 192.847656 128.6875 C 192.847656 129.457031 192.808594 130.222656 192.734375 130.984375 C 192.65625 131.75 192.546875 132.507812 192.394531 133.261719 C 192.246094 134.015625 192.058594 134.757812 191.835938 135.492188 C 191.613281 136.226562 191.355469 136.949219 191.058594 137.65625 C 190.765625 138.367188 190.4375 139.058594 190.074219 139.738281 C 189.710938 140.414062 189.316406 141.070312 188.890625 141.710938 C 188.464844 142.347656 188.007812 142.964844 187.519531 143.558594 C 187.03125 144.152344 186.515625 144.71875 185.972656 145.261719 C 185.425781 145.804688 184.859375 146.320312 184.265625 146.804688 C 183.671875 147.292969 183.054688 147.75 182.414062 148.175781 C 181.773438 148.601562 181.117188 148.996094 180.4375 149.359375 C 179.761719 149.722656 179.066406 150.046875 178.355469 150.34375 C 177.644531 150.636719 176.921875 150.894531 176.1875 151.117188 C 175.453125 151.339844 174.707031 151.527344 173.953125 151.675781 C 173.199219 151.824219 172.441406 151.9375 171.675781 152.011719 C 170.910156 152.089844 170.144531 152.125 169.375 152.125 C 168.605469 152.125 167.839844 152.089844 167.074219 152.011719 C 166.308594 151.9375 165.546875 151.824219 164.792969 151.675781 C 164.039062 151.527344 163.296875 151.339844 162.558594 151.117188 C 161.824219 150.894531 161.101562 150.636719 160.390625 150.34375 C 159.679688 150.046875 158.988281 149.722656 158.308594 149.359375 C 157.632812 148.996094 156.972656 148.601562 156.332031 148.175781 C 155.695312 147.75 155.078125 147.292969 154.484375 146.804688 C 153.890625 146.320312 153.320312 145.804688 152.777344 145.261719 C 152.234375 144.71875 151.71875 144.152344 151.230469 143.558594 C 150.742188 142.964844 150.285156 142.347656 149.859375 141.710938 C 149.429688 141.070312 149.035156 140.414062 148.671875 139.738281 C 148.3125 139.058594 147.984375 138.367188 147.6875 137.65625 C 147.394531 136.949219 147.136719 136.226562 146.914062 135.492188 C 146.6875 134.757812 146.503906 134.015625 146.351562 133.261719 C 146.203125 132.507812 146.089844 131.75 146.015625 130.984375 C 145.9375 130.222656 145.902344 129.457031 145.902344 128.6875 C 145.902344 127.921875 145.941406 127.15625 146.015625 126.390625 C 146.09375 125.628906 146.207031 124.871094 146.355469 124.117188 C 146.507812 123.367188 146.695312 122.621094 146.917969 121.886719 C 147.140625 121.152344 147.402344 120.433594 147.695312 119.722656 C 147.988281 119.015625 148.320312 118.324219 148.679688 117.644531 C 149.042969 116.96875 149.4375 116.3125 149.867188 115.675781 C 150.292969 115.035156 150.75 114.421875 151.238281 113.828125 C 151.726562 113.234375 152.242188 112.667969 152.785156 112.125 C 153.328125 111.582031 153.898438 111.066406 154.492188 110.578125 C 155.085938 110.09375 155.699219 109.636719 156.339844 109.210938 C 156.980469 108.78125 157.636719 108.390625 158.316406 108.027344 C 158.992188 107.664062 159.6875 107.335938 160.394531 107.042969 C 161.105469 106.75 161.828125 106.488281 162.5625 106.265625 C 163.296875 106.042969 164.042969 105.855469 164.796875 105.707031 C 165.550781 105.554688 166.308594 105.441406 167.074219 105.367188 C 167.839844 105.289062 168.605469 105.253906 169.375 105.25 Z M 169.375 105.25 " fill-opacity="1" fill-rule="nonzero"/></g><path fill="#000000" d="M 181.546875 159.15625 L 189.324219 159.15625 C 191.722656 159.15625 194.09375 159.417969 196.4375 159.9375 C 198.777344 160.453125 201.035156 161.222656 203.207031 162.234375 C 205.382812 163.246094 207.417969 164.484375 209.320312 165.945312 C 211.222656 167.402344 212.941406 169.050781 214.480469 170.890625 C 216.652344 170.925781 218.792969 171.199219 220.902344 171.710938 C 220.0625 170.40625 219.144531 169.160156 218.152344 167.96875 C 217.160156 166.777344 216.09375 165.65625 214.960938 164.597656 C 213.828125 163.539062 212.636719 162.554688 211.378906 161.640625 C 210.125 160.730469 208.816406 159.902344 207.457031 159.152344 C 206.101562 158.402344 204.699219 157.742188 203.261719 157.164062 C 201.820312 156.589844 200.347656 156.105469 198.847656 155.710938 C 197.347656 155.316406 195.828125 155.019531 194.289062 154.8125 C 192.75 154.605469 191.207031 154.496094 189.65625 154.484375 C 187.175781 156.429688 184.472656 157.988281 181.546875 159.15625 Z M 181.546875 159.15625 " fill-opacity="1" fill-rule="nonzero"/><g clip-path="url(#4c0a2afb57)"><path fill="#000000" d="M 222.1875 243.53125 C 222.1875 243.84375 222.125 244.140625 222.007812 244.429688 C 221.886719 244.714844 221.71875 244.96875 221.5 245.191406 C 221.277344 245.410156 221.023438 245.578125 220.738281 245.699219 C 220.449219 245.816406 220.152344 245.875 219.839844 245.875 L 203.410156 245.875 L 203.410156 229.46875 C 203.410156 229.160156 203.347656 228.859375 203.230469 228.574219 C 203.109375 228.285156 202.941406 228.03125 202.722656 227.8125 C 202.5 227.59375 202.246094 227.421875 201.960938 227.304688 C 201.671875 227.1875 201.371094 227.125 201.0625 227.125 C 200.75 227.125 200.449219 227.1875 200.164062 227.304688 C 199.875 227.421875 199.621094 227.59375 199.402344 227.8125 C 199.179688 228.03125 199.011719 228.285156 198.894531 228.574219 C 198.773438 228.859375 198.714844 229.160156 198.714844 229.46875 L 198.714844 245.875 L 140.035156 245.875 L 140.035156 229.46875 C 140.035156 229.160156 139.972656 228.859375 139.855469 228.574219 C 139.734375 228.285156 139.566406 228.03125 139.347656 227.8125 C 139.125 227.59375 138.871094 227.421875 138.585938 227.304688 C 138.296875 227.1875 137.996094 227.125 137.6875 227.125 C 137.375 227.125 137.074219 227.1875 136.789062 227.304688 C 136.5 227.421875 136.246094 227.59375 136.027344 227.8125 C 135.804688 228.03125 135.636719 228.285156 135.519531 228.574219 C 135.398438 228.859375 135.339844 229.160156 135.339844 229.46875 L 135.339844 245.875 L 118.910156 245.875 C 118.597656 245.875 118.296875 245.816406 118.011719 245.699219 C 117.722656 245.578125 117.46875 245.410156 117.25 245.191406 C 117.027344 244.96875 116.859375 244.714844 116.738281 244.429688 C 116.621094 244.140625 116.5625 243.84375 116.5625 243.53125 L 116.5625 191.96875 C 116.5625 190.894531 116.617188 189.824219 116.722656 188.753906 C 116.828125 187.6875 116.988281 186.625 117.199219 185.570312 C 117.410156 184.519531 117.671875 183.476562 117.984375 182.449219 C 118.296875 181.421875 118.660156 180.410156 119.074219 179.417969 C 119.484375 178.425781 119.945312 177.457031 120.453125 176.507812 C 120.960938 175.5625 121.511719 174.640625 122.109375 173.75 C 122.707031 172.855469 123.347656 171.996094 124.03125 171.164062 C 124.714844 170.332031 125.4375 169.539062 126.195312 168.777344 C 126.957031 168.019531 127.753906 167.296875 128.585938 166.617188 C 129.417969 165.933594 130.28125 165.296875 131.175781 164.699219 C 132.070312 164.101562 132.992188 163.550781 133.9375 163.042969 C 134.886719 162.535156 135.859375 162.078125 136.851562 161.664062 C 137.847656 161.253906 138.859375 160.890625 139.886719 160.578125 C 140.917969 160.265625 141.960938 160.003906 143.015625 159.792969 C 144.070312 159.582031 145.132812 159.425781 146.203125 159.320312 C 147.273438 159.210938 148.347656 159.160156 149.421875 159.15625 L 157.203125 159.15625 C 154.273438 157.984375 151.570312 156.425781 149.09375 154.476562 C 147.871094 154.488281 146.652344 154.5625 145.4375 154.691406 C 144.222656 154.824219 143.015625 155.011719 141.816406 155.261719 C 140.621094 155.507812 139.4375 155.816406 138.269531 156.179688 C 137.105469 156.542969 135.957031 156.960938 134.832031 157.4375 C 133.703125 157.910156 132.605469 158.441406 131.53125 159.023438 C 130.453125 159.605469 129.410156 160.238281 128.398438 160.921875 C 127.386719 161.605469 126.410156 162.335938 125.46875 163.117188 C 124.527344 163.894531 123.625 164.71875 122.765625 165.585938 C 121.902344 166.453125 121.085938 167.359375 120.316406 168.304688 C 119.542969 169.253906 118.816406 170.234375 118.140625 171.25 C 117.464844 172.269531 116.839844 173.316406 116.265625 174.394531 C 115.691406 175.472656 115.171875 176.574219 114.707031 177.703125 C 114.242188 178.832031 113.832031 179.980469 113.476562 181.148438 C 113.121094 182.316406 112.828125 183.5 112.589844 184.699219 C 112.351562 185.894531 112.171875 187.101562 112.050781 188.316406 C 111.929688 189.53125 111.867188 190.75 111.867188 191.96875 L 111.867188 243.53125 C 111.867188 243.992188 111.914062 244.449219 112.003906 244.902344 C 112.09375 245.355469 112.226562 245.796875 112.40625 246.222656 C 112.582031 246.648438 112.800781 247.054688 113.054688 247.4375 C 113.3125 247.820312 113.605469 248.175781 113.933594 248.503906 C 114.257812 248.828125 114.613281 249.121094 115 249.375 C 115.382812 249.632812 115.789062 249.847656 116.214844 250.027344 C 116.640625 250.203125 117.082031 250.335938 117.535156 250.425781 C 117.988281 250.519531 118.445312 250.5625 118.910156 250.5625 L 219.839844 250.5625 C 220.300781 250.5625 220.757812 250.519531 221.210938 250.425781 C 221.664062 250.335938 222.105469 250.203125 222.53125 250.027344 C 222.960938 249.847656 223.363281 249.632812 223.75 249.375 C 224.132812 249.121094 224.488281 248.828125 224.816406 248.503906 C 225.144531 248.175781 225.433594 247.820312 225.691406 247.4375 C 225.949219 247.054688 226.164062 246.648438 226.34375 246.222656 C 226.519531 245.796875 226.652344 245.355469 226.746094 244.902344 C 226.835938 244.449219 226.878906 243.992188 226.882812 243.53125 L 226.882812 226.472656 C 225.367188 227.21875 223.804688 227.824219 222.1875 228.296875 Z M 222.1875 243.53125 " fill-opacity="1" fill-rule="nonzero"/></g><g clip-path="url(#ed2350d7b7)"><path fill="#000000" d="M 213.972656 175.5625 C 213.164062 175.5625 212.359375 175.601562 211.554688 175.683594 C 210.753906 175.761719 209.953125 175.878906 209.164062 176.035156 C 208.371094 176.195312 207.589844 176.390625 206.816406 176.625 C 206.042969 176.859375 205.285156 177.128906 204.539062 177.4375 C 203.792969 177.746094 203.066406 178.089844 202.351562 178.46875 C 201.640625 178.851562 200.949219 179.261719 200.277344 179.710938 C 199.609375 180.160156 198.960938 180.636719 198.335938 181.148438 C 197.710938 181.660156 197.113281 182.203125 196.542969 182.773438 C 195.972656 183.339844 195.433594 183.9375 194.917969 184.5625 C 194.40625 185.183594 193.925781 185.832031 193.480469 186.5 C 193.03125 187.171875 192.617188 187.863281 192.234375 188.574219 C 191.855469 189.285156 191.511719 190.011719 191.203125 190.753906 C 190.890625 191.5 190.621094 192.257812 190.386719 193.03125 C 190.152344 193.800781 189.957031 194.582031 189.800781 195.371094 C 189.640625 196.164062 189.523438 196.957031 189.445312 197.761719 C 189.363281 198.5625 189.324219 199.367188 189.324219 200.171875 C 189.324219 200.980469 189.363281 201.785156 189.445312 202.585938 C 189.523438 203.386719 189.640625 204.183594 189.800781 204.972656 C 189.957031 205.765625 190.152344 206.546875 190.386719 207.316406 C 190.621094 208.089844 190.890625 208.847656 191.203125 209.589844 C 191.511719 210.335938 191.855469 211.0625 192.234375 211.773438 C 192.617188 212.484375 193.03125 213.175781 193.480469 213.84375 C 193.925781 214.515625 194.40625 215.164062 194.917969 215.785156 C 195.433594 216.410156 195.972656 217.003906 196.542969 217.574219 C 197.113281 218.144531 197.710938 218.683594 198.335938 219.195312 C 198.960938 219.707031 199.609375 220.1875 200.277344 220.636719 C 200.949219 221.082031 201.640625 221.496094 202.351562 221.875 C 203.066406 222.257812 203.792969 222.601562 204.539062 222.910156 C 205.285156 223.21875 206.042969 223.488281 206.816406 223.722656 C 207.589844 223.957031 208.371094 224.152344 209.164062 224.308594 C 209.953125 224.46875 210.753906 224.585938 211.554688 224.664062 C 212.359375 224.742188 213.164062 224.78125 213.972656 224.78125 C 214.777344 224.78125 215.582031 224.742188 216.386719 224.664062 C 217.191406 224.585938 217.988281 224.46875 218.78125 224.308594 C 219.570312 224.152344 220.351562 223.957031 221.125 223.722656 C 221.898438 223.488281 222.65625 223.21875 223.402344 222.910156 C 224.148438 222.601562 224.878906 222.257812 225.589844 221.875 C 226.300781 221.496094 226.992188 221.082031 227.664062 220.636719 C 228.335938 220.1875 228.980469 219.707031 229.605469 219.195312 C 230.230469 218.683594 230.828125 218.144531 231.398438 217.574219 C 231.96875 217.003906 232.511719 216.410156 233.023438 215.785156 C 233.535156 215.164062 234.015625 214.515625 234.464844 213.84375 C 234.910156 213.175781 235.328125 212.484375 235.707031 211.773438 C 236.085938 211.0625 236.433594 210.335938 236.742188 209.589844 C 237.050781 208.847656 237.320312 208.089844 237.554688 207.316406 C 237.789062 206.546875 237.984375 205.765625 238.144531 204.972656 C 238.300781 204.183594 238.417969 203.386719 238.5 202.585938 C 238.578125 201.785156 238.617188 200.980469 238.617188 200.171875 C 238.617188 199.367188 238.574219 198.5625 238.496094 197.761719 C 238.414062 196.960938 238.296875 196.164062 238.140625 195.375 C 237.980469 194.582031 237.785156 193.804688 237.550781 193.03125 C 237.316406 192.261719 237.042969 191.503906 236.734375 190.761719 C 236.425781 190.015625 236.078125 189.289062 235.699219 188.578125 C 235.316406 187.867188 234.902344 187.175781 234.453125 186.507812 C 234.007812 185.835938 233.527344 185.191406 233.015625 184.570312 C 232.503906 183.945312 231.960938 183.351562 231.390625 182.78125 C 230.820312 182.210938 230.222656 181.667969 229.597656 181.160156 C 228.976562 180.648438 228.328125 180.167969 227.65625 179.71875 C 226.984375 179.273438 226.296875 178.859375 225.582031 178.476562 C 224.871094 178.097656 224.144531 177.753906 223.398438 177.445312 C 222.652344 177.136719 221.894531 176.863281 221.121094 176.628906 C 220.351562 176.394531 219.570312 176.199219 218.777344 176.042969 C 217.984375 175.882812 217.1875 175.765625 216.386719 175.683594 C 215.582031 175.605469 214.777344 175.566406 213.972656 175.5625 Z M 213.972656 220.09375 C 213.316406 220.09375 212.664062 220.0625 212.015625 220 C 211.367188 219.933594 210.71875 219.839844 210.078125 219.710938 C 209.4375 219.585938 208.804688 219.425781 208.179688 219.238281 C 207.554688 219.046875 206.941406 218.828125 206.335938 218.578125 C 205.730469 218.328125 205.140625 218.050781 204.566406 217.742188 C 203.988281 217.433594 203.429688 217.101562 202.886719 216.738281 C 202.34375 216.375 201.820312 215.988281 201.3125 215.574219 C 200.808594 215.160156 200.324219 214.722656 199.863281 214.261719 C 199.402344 213.796875 198.964844 213.316406 198.546875 212.8125 C 198.132812 212.308594 197.746094 211.785156 197.382812 211.242188 C 197.019531 210.699219 196.683594 210.140625 196.375 209.5625 C 196.066406 208.988281 195.789062 208.398438 195.539062 207.796875 C 195.289062 207.195312 195.070312 206.582031 194.878906 205.957031 C 194.6875 205.332031 194.53125 204.699219 194.402344 204.058594 C 194.277344 203.417969 194.179688 202.773438 194.117188 202.125 C 194.050781 201.476562 194.019531 200.824219 194.019531 200.171875 C 194.019531 199.519531 194.050781 198.871094 194.117188 198.21875 C 194.179688 197.570312 194.277344 196.925781 194.402344 196.285156 C 194.53125 195.648438 194.6875 195.015625 194.878906 194.390625 C 195.070312 193.765625 195.289062 193.152344 195.539062 192.550781 C 195.789062 191.945312 196.066406 191.359375 196.375 190.78125 C 196.683594 190.207031 197.019531 189.648438 197.382812 189.105469 C 197.746094 188.5625 198.132812 188.039062 198.546875 187.535156 C 198.964844 187.03125 199.402344 186.546875 199.863281 186.085938 C 200.324219 185.625 200.808594 185.1875 201.3125 184.773438 C 201.820312 184.359375 202.34375 183.972656 202.886719 183.609375 C 203.429688 183.246094 203.988281 182.910156 204.566406 182.605469 C 205.140625 182.296875 205.730469 182.015625 206.335938 181.769531 C 206.941406 181.519531 207.554688 181.296875 208.179688 181.109375 C 208.804688 180.917969 209.4375 180.761719 210.078125 180.632812 C 210.71875 180.507812 211.367188 180.410156 212.015625 180.347656 C 212.664062 180.285156 213.316406 180.25 213.972656 180.25 C 214.625 180.25 215.277344 180.285156 215.925781 180.347656 C 216.578125 180.410156 217.222656 180.507812 217.863281 180.632812 C 218.503906 180.761719 219.136719 180.917969 219.761719 181.109375 C 220.386719 181.296875 221.003906 181.519531 221.605469 181.769531 C 222.210938 182.015625 222.800781 182.296875 223.375 182.605469 C 223.953125 182.910156 224.511719 183.246094 225.054688 183.609375 C 225.597656 183.972656 226.125 184.359375 226.628906 184.773438 C 227.132812 185.1875 227.617188 185.625 228.078125 186.085938 C 228.539062 186.546875 228.980469 187.03125 229.394531 187.535156 C 229.808594 188.039062 230.195312 188.5625 230.558594 189.105469 C 230.921875 189.648438 231.257812 190.207031 231.566406 190.78125 C 231.875 191.359375 232.152344 191.945312 232.402344 192.550781 C 232.652344 193.152344 232.875 193.765625 233.0625 194.390625 C 233.253906 195.015625 233.410156 195.648438 233.539062 196.285156 C 233.667969 196.925781 233.761719 197.570312 233.828125 198.21875 C 233.890625 198.871094 233.921875 199.519531 233.921875 200.171875 C 233.921875 200.824219 233.890625 201.476562 233.824219 202.125 C 233.761719 202.773438 233.664062 203.417969 233.535156 204.058594 C 233.40625 204.699219 233.25 205.328125 233.058594 205.953125 C 232.867188 206.578125 232.648438 207.191406 232.398438 207.792969 C 232.148438 208.394531 231.867188 208.984375 231.558594 209.558594 C 231.253906 210.136719 230.917969 210.695312 230.554688 211.234375 C 230.191406 211.777344 229.800781 212.300781 229.386719 212.804688 C 228.972656 213.308594 228.535156 213.792969 228.074219 214.253906 C 227.609375 214.714844 227.128906 215.152344 226.621094 215.566406 C 226.117188 215.980469 225.59375 216.367188 225.050781 216.730469 C 224.507812 217.09375 223.949219 217.429688 223.371094 217.734375 C 222.796875 218.042969 222.207031 218.324219 221.601562 218.574219 C 221 218.824219 220.386719 219.042969 219.761719 219.230469 C 219.136719 219.421875 218.503906 219.582031 217.863281 219.707031 C 217.222656 219.835938 216.574219 219.933594 215.925781 219.996094 C 215.277344 220.0625 214.625 220.09375 213.972656 220.09375 Z M 213.972656 220.09375 " fill-opacity="1" fill-rule="nonzero"/></g><path fill="#000000" d="M 220.742188 193.640625 L 210.515625 201.628906 L 207.546875 198.136719 C 207.34375 197.898438 207.105469 197.710938 206.828125 197.566406 C 206.550781 197.425781 206.257812 197.339844 205.945312 197.316406 C 205.636719 197.292969 205.332031 197.328125 205.035156 197.421875 C 204.742188 197.515625 204.472656 197.664062 204.238281 197.867188 C 204 198.066406 203.808594 198.304688 203.667969 198.582031 C 203.527344 198.859375 203.441406 199.152344 203.417969 199.460938 C 203.390625 199.773438 203.425781 200.074219 203.523438 200.371094 C 203.617188 200.667969 203.765625 200.933594 203.96875 201.171875 L 208.398438 206.378906 C 208.597656 206.601562 208.832031 206.78125 209.101562 206.917969 C 209.371094 207.054688 209.652344 207.140625 209.953125 207.171875 C 210.253906 207.199219 210.546875 207.175781 210.835938 207.09375 C 211.128906 207.015625 211.394531 206.886719 211.632812 206.707031 L 223.632812 197.332031 C 223.875 197.140625 224.070312 196.90625 224.222656 196.636719 C 224.371094 196.367188 224.464844 196.078125 224.5 195.773438 C 224.539062 195.464844 224.515625 195.164062 224.429688 194.867188 C 224.347656 194.566406 224.210938 194.296875 224.019531 194.054688 C 223.828125 193.8125 223.597656 193.613281 223.328125 193.460938 C 223.058594 193.308594 222.773438 193.210938 222.464844 193.171875 C 222.15625 193.132812 221.855469 193.15625 221.558594 193.238281 C 221.257812 193.316406 220.984375 193.453125 220.742188 193.640625 Z M 220.742188 193.640625 " fill-opacity="1" fill-rule="nonzero"/></svg>